<svg width="180" height="40" viewBox="0 0 180 40" fill="none" xmlns="http://www.w3.org/2000/svg">
<svg x="1" y="5" width="26" height="26" viewBox="87.125 73.25 319.75 342.25">
<path d="M204.502 73.7566C174.43 73.7068 150.244 91.1916 138.598 114.355L100.495 180.48C85.9024 202.015 82.4668 231.761 97.26 257.974L97.6246 258.613L176.341 395.049L187.804 414.918L276.841 414.947L299.1 414.954L322.136 414.996L387.552 303.156L363.281 261.039L406.293 186.551L341.541 73.9838L204.502 73.7566Z" fill="url(#paint0_light)"/>
<path d="M196.735 93.3021C202.001 82.0635 213.301 73.7325 227.481 73.756L341.588 73.9458L384.723 148.896L384.578 148.895L384.747 148.9L341.603 223.471L363.203 261.002L363.193 261.003L340.153 300.721L340.16 300.734L340.146 300.733L320.017 335.435L319.966 335.345L296.972 375.166L253.982 300.705L253.768 300.705L192.749 194.944L130.873 207.341L173.704 133.009C174.705 130.876 175.925 128.849 177.339 126.963L196.735 93.3021Z" fill="url(#paint1_light)"/>
<path d="M297.145 375.222L210.753 375.194L132.037 238.758C119.001 216.163 135.336 187.933 161.422 187.976L275.53 188.165L318.665 263.116L232.442 262.795L297.145 375.222Z" fill="url(#paint2_light)"/>
<path d="M196.739 93.2914C202.008 82.0582 213.304 73.7333 227.479 73.7566L341.586 73.945L384.722 148.896L384.59 148.896L384.744 148.9L341.602 223.47L363.202 261.002L363.192 261.001L340.151 300.719L340.16 300.734L340.143 300.733L320.014 335.435L319.963 335.346L296.971 375.166L253.98 300.705L253.767 300.706L192.748 194.944L130.874 207.341L173.701 133.014C174.702 130.882 175.92 128.855 177.333 126.969L196.739 93.2914Z" fill="url(#paint3_light)"/>
<path d="M384.703 149.028L318.582 263.103L275.704 188.3L341.691 74.091L384.703 149.028Z" fill="url(#paint4_light)"/>
<path d="M196.739 93.2916C202.008 82.0584 213.304 73.7335 227.479 73.7567L341.586 73.9451L341.617 74.0006L275.569 188.3L247.252 200.722L199.493 206.637L192.748 194.944L130.874 207.341L173.701 133.015C174.702 130.882 175.92 128.855 177.333 126.97L196.739 93.2916Z" fill="url(#paint5_light)"/>
<path d="M297.146 375.222L210.754 375.194L132.038 238.758C119.002 216.163 135.337 187.933 161.423 187.976L275.531 188.165L318.666 263.116L232.443 262.795L297.146 375.222Z" fill="url(#paint6_light)"/>
</svg>
<text x="33" y="24" font-family="Inter, system-ui, -apple-system, sans-serif" font-size="16" font-weight="600" fill="#09090B">Rivestack</text>
<defs>
<linearGradient id="paint0_light" x1="151.979" y1="154.075" x2="352.887" y2="397.242" gradientUnits="userSpaceOnUse">
<stop stop-color="#B5D9FF"/>
<stop offset="1" stop-color="#BAE1FF"/>
</linearGradient>
<linearGradient id="paint1_light" x1="222.926" y1="56.1463" x2="470.7" y2="226.499" gradientUnits="userSpaceOnUse">
<stop stop-color="#1936FE"/>
<stop offset="1" stop-color="#3F98FE"/>
</linearGradient>
<linearGradient id="paint2_light" x1="255.4" y1="187.05" x2="210.433" y2="379.409" gradientUnits="userSpaceOnUse">
<stop stop-color="#4FCDFF"/>
<stop offset="1" stop-color="#3F98FE"/>
</linearGradient>
<linearGradient id="paint3_light" x1="222.926" y1="56.1462" x2="470.699" y2="226.498" gradientUnits="userSpaceOnUse">
<stop stop-color="#1936FE"/>
<stop offset="1" stop-color="#3F98FE"/>
</linearGradient>
<linearGradient id="paint4_light" x1="343.644" y1="65.9662" x2="441.409" y2="208.519" gradientUnits="userSpaceOnUse">
<stop stop-color="#1936FE"/>
<stop offset="1" stop-color="#3F98FE"/>
</linearGradient>
<linearGradient id="paint5_light" x1="226.634" y1="62.5692" x2="318.654" y2="166.685" gradientUnits="userSpaceOnUse">
<stop stop-color="#1936FE"/>
<stop offset="1" stop-color="#3F98FE"/>
</linearGradient>
<linearGradient id="paint6_light" x1="255.401" y1="187.05" x2="210.434" y2="379.409" gradientUnits="userSpaceOnUse">
<stop stop-color="#4FCDFF"/>
<stop offset="1" stop-color="#3F98FE"/>
</linearGradient>
</defs>
</svg>
